<mxfile host="app.diagrams.net" agent="Mozilla/5.0 (Windows NT 10.0; Win64; x64) AppleWebKit/537.36 (KHTML, like Gecko) Chrome/134.0.0.0 Safari/537.36" version="26.2.12" pages="2">
  <diagram name="Plantilla Presentacion DSM" id="opc3VXNQmmCSkJSzHNXy">
    <mxGraphModel dx="1724" dy="1565" grid="1" gridSize="10" guides="1" tooltips="1" connect="1" arrows="1" fold="1" page="1" pageScale="1" pageWidth="850" pageHeight="1100" math="0" shadow="0">
      <root>
        <mxCell id="0" />
        <mxCell id="1" parent="0" />
        <mxCell id="P21iSFoBiq4sMFabAfa0-1" value="" style="rounded=0;whiteSpace=wrap;html=1;" vertex="1" parent="1">
          <mxGeometry x="70" y="-40" width="670" height="430" as="geometry" />
        </mxCell>
        <mxCell id="P21iSFoBiq4sMFabAfa0-2" value="Proyecto Design System - Sprint # {Numero de Sprint}" style="text;html=1;align=left;verticalAlign=middle;whiteSpace=wrap;rounded=0;fontStyle=4;fontSize=17;" vertex="1" parent="1">
          <mxGeometry x="210" y="-30" width="430" height="30" as="geometry" />
        </mxCell>
        <mxCell id="P21iSFoBiq4sMFabAfa0-3" value="" style="rounded=1;whiteSpace=wrap;html=1;" vertex="1" parent="1">
          <mxGeometry x="90" y="20" width="300" height="120" as="geometry" />
        </mxCell>
        <mxCell id="P21iSFoBiq4sMFabAfa0-4" value="Objetivos del Sprint" style="text;html=1;align=center;verticalAlign=middle;whiteSpace=wrap;rounded=0;fontStyle=4" vertex="1" parent="1">
          <mxGeometry x="90" y="20" width="130" height="30" as="geometry" />
        </mxCell>
        <mxCell id="P21iSFoBiq4sMFabAfa0-5" value="&lt;ul&gt;&lt;li&gt;Definición de Colores&lt;/li&gt;&lt;ul&gt;&lt;li&gt;Primarios&lt;/li&gt;&lt;li&gt;Neutrales&lt;/li&gt;&lt;li&gt;Semanticos&lt;/li&gt;&lt;/ul&gt;&lt;/ul&gt;" style="text;html=1;align=left;verticalAlign=middle;whiteSpace=wrap;rounded=0;" vertex="1" parent="1">
          <mxGeometry x="100" y="50" width="270" height="80" as="geometry" />
        </mxCell>
        <mxCell id="P21iSFoBiq4sMFabAfa0-6" value="" style="rounded=1;whiteSpace=wrap;html=1;" vertex="1" parent="1">
          <mxGeometry x="410" y="20" width="300" height="120" as="geometry" />
        </mxCell>
        <mxCell id="P21iSFoBiq4sMFabAfa0-7" value="&amp;nbsp; Roadmap" style="text;html=1;align=left;verticalAlign=middle;whiteSpace=wrap;rounded=0;fontStyle=0" vertex="1" parent="1">
          <mxGeometry x="420" y="20" width="90" height="30" as="geometry" />
        </mxCell>
        <mxCell id="P21iSFoBiq4sMFabAfa0-8" value="" style="rounded=1;whiteSpace=wrap;html=1;" vertex="1" parent="1">
          <mxGeometry x="90" y="160" width="300" height="120" as="geometry" />
        </mxCell>
        <mxCell id="P21iSFoBiq4sMFabAfa0-9" value="Resultados del Sprint" style="text;html=1;align=center;verticalAlign=middle;whiteSpace=wrap;rounded=0;fontStyle=4" vertex="1" parent="1">
          <mxGeometry x="90" y="160" width="130" height="30" as="geometry" />
        </mxCell>
        <mxCell id="P21iSFoBiq4sMFabAfa0-10" value="" style="rounded=1;whiteSpace=wrap;html=1;" vertex="1" parent="1">
          <mxGeometry x="410" y="160" width="300" height="120" as="geometry" />
        </mxCell>
        <mxCell id="P21iSFoBiq4sMFabAfa0-11" value="" style="endArrow=none;html=1;rounded=0;" edge="1" parent="1">
          <mxGeometry width="50" height="50" relative="1" as="geometry">
            <mxPoint x="439" y="109" as="sourcePoint" />
            <mxPoint x="679" y="109" as="targetPoint" />
          </mxGeometry>
        </mxCell>
        <mxCell id="P21iSFoBiq4sMFabAfa0-12" value="" style="endArrow=none;html=1;rounded=0;" edge="1" parent="1">
          <mxGeometry width="50" height="50" relative="1" as="geometry">
            <mxPoint x="439" y="129" as="sourcePoint" />
            <mxPoint x="439" y="89" as="targetPoint" />
          </mxGeometry>
        </mxCell>
        <mxCell id="P21iSFoBiq4sMFabAfa0-13" value="" style="endArrow=none;html=1;rounded=0;" edge="1" parent="1">
          <mxGeometry width="50" height="50" relative="1" as="geometry">
            <mxPoint x="478" y="129" as="sourcePoint" />
            <mxPoint x="478" y="89" as="targetPoint" />
          </mxGeometry>
        </mxCell>
        <mxCell id="P21iSFoBiq4sMFabAfa0-14" value="" style="endArrow=none;html=1;rounded=0;" edge="1" parent="1">
          <mxGeometry width="50" height="50" relative="1" as="geometry">
            <mxPoint x="519" y="129" as="sourcePoint" />
            <mxPoint x="519" y="89" as="targetPoint" />
          </mxGeometry>
        </mxCell>
        <mxCell id="P21iSFoBiq4sMFabAfa0-15" value="" style="endArrow=none;html=1;rounded=0;" edge="1" parent="1">
          <mxGeometry width="50" height="50" relative="1" as="geometry">
            <mxPoint x="559" y="129" as="sourcePoint" />
            <mxPoint x="559" y="89" as="targetPoint" />
          </mxGeometry>
        </mxCell>
        <mxCell id="P21iSFoBiq4sMFabAfa0-16" value="" style="endArrow=none;html=1;rounded=0;" edge="1" parent="1">
          <mxGeometry width="50" height="50" relative="1" as="geometry">
            <mxPoint x="599" y="129" as="sourcePoint" />
            <mxPoint x="599" y="89" as="targetPoint" />
          </mxGeometry>
        </mxCell>
        <mxCell id="P21iSFoBiq4sMFabAfa0-17" value="" style="endArrow=none;html=1;rounded=0;" edge="1" parent="1">
          <mxGeometry width="50" height="50" relative="1" as="geometry">
            <mxPoint x="638.5" y="129" as="sourcePoint" />
            <mxPoint x="638.5" y="89" as="targetPoint" />
          </mxGeometry>
        </mxCell>
        <mxCell id="P21iSFoBiq4sMFabAfa0-18" value="" style="endArrow=none;html=1;rounded=0;" edge="1" parent="1">
          <mxGeometry width="50" height="50" relative="1" as="geometry">
            <mxPoint x="680" y="130" as="sourcePoint" />
            <mxPoint x="680" y="90" as="targetPoint" />
          </mxGeometry>
        </mxCell>
        <mxCell id="P21iSFoBiq4sMFabAfa0-19" value="&lt;font style=&quot;font-size: 9px;&quot;&gt;Sprint 1&lt;/font&gt;" style="text;html=1;align=center;verticalAlign=middle;whiteSpace=wrap;rounded=0;" vertex="1" parent="1">
          <mxGeometry x="459" y="68" width="40" height="20" as="geometry" />
        </mxCell>
        <mxCell id="P21iSFoBiq4sMFabAfa0-20" value="" style="sketch=0;html=1;aspect=fixed;strokeColor=none;shadow=0;align=center;fillColor=#2D9C5E;verticalAlign=top;labelPosition=center;verticalLabelPosition=bottom;shape=mxgraph.gcp2.check" vertex="1" parent="1">
          <mxGeometry x="473" y="54" width="12.5" height="10" as="geometry" />
        </mxCell>
        <mxCell id="P21iSFoBiq4sMFabAfa0-21" value="&lt;font style=&quot;font-size: 9px;&quot;&gt;Sprint 2&lt;/font&gt;" style="text;html=1;align=center;verticalAlign=middle;whiteSpace=wrap;rounded=0;" vertex="1" parent="1">
          <mxGeometry x="499" y="68" width="40" height="20" as="geometry" />
        </mxCell>
        <mxCell id="P21iSFoBiq4sMFabAfa0-22" value="&lt;font style=&quot;font-size: 9px;&quot;&gt;Sprint 3&lt;/font&gt;" style="text;html=1;align=center;verticalAlign=middle;whiteSpace=wrap;rounded=0;" vertex="1" parent="1">
          <mxGeometry x="538" y="68" width="40" height="20" as="geometry" />
        </mxCell>
        <mxCell id="P21iSFoBiq4sMFabAfa0-23" value="" style="points=[[0.145,0.145,0],[0.5,0,0],[0.855,0.145,0],[1,0.5,0],[0.855,0.855,0],[0.5,1,0],[0.145,0.855,0],[0,0.5,0]];shape=mxgraph.bpmn.event;html=1;verticalLabelPosition=bottom;labelBackgroundColor=#ffffff;verticalAlign=top;align=center;perimeter=ellipsePerimeter;outlineConnect=0;aspect=fixed;outline=eventNonint;symbol=timer;" vertex="1" parent="1">
          <mxGeometry x="509" y="48" width="20" height="20" as="geometry" />
        </mxCell>
        <mxCell id="P21iSFoBiq4sMFabAfa0-24" value="" style="points=[[0.145,0.145,0],[0.5,0,0],[0.855,0.145,0],[1,0.5,0],[0.855,0.855,0],[0.5,1,0],[0.145,0.855,0],[0,0.5,0]];shape=mxgraph.bpmn.event;html=1;verticalLabelPosition=bottom;labelBackgroundColor=#ffffff;verticalAlign=top;align=center;perimeter=ellipsePerimeter;outlineConnect=0;aspect=fixed;outline=eventNonint;symbol=timer;" vertex="1" parent="1">
          <mxGeometry x="548" y="49" width="20" height="20" as="geometry" />
        </mxCell>
        <mxCell id="P21iSFoBiq4sMFabAfa0-25" value="&lt;ul&gt;&lt;li&gt;Detalles de lo realizado en el Sprint&lt;/li&gt;&lt;ul&gt;&lt;li&gt;Nombre de las Investigaciones realizadas()&lt;/li&gt;&lt;/ul&gt;&lt;li&gt;Cosas que no hayan ingresado/considerado en el sprint&lt;/li&gt;&lt;/ul&gt;" style="text;html=1;align=left;verticalAlign=middle;whiteSpace=wrap;rounded=0;" vertex="1" parent="1">
          <mxGeometry x="100" y="190" width="260" height="80" as="geometry" />
        </mxCell>
        <mxCell id="P21iSFoBiq4sMFabAfa0-26" value="Pasos del Siguiente Sprint" style="text;html=1;align=center;verticalAlign=middle;whiteSpace=wrap;rounded=0;fontStyle=4" vertex="1" parent="1">
          <mxGeometry x="410" y="160" width="170" height="30" as="geometry" />
        </mxCell>
        <mxCell id="P21iSFoBiq4sMFabAfa0-27" value="&lt;ul&gt;&lt;li&gt;Definición de Tipografia&lt;/li&gt;&lt;ul&gt;&lt;li&gt;Tamaño&lt;/li&gt;&lt;li&gt;Estilos&lt;/li&gt;&lt;/ul&gt;&lt;/ul&gt;" style="text;html=1;align=left;verticalAlign=middle;whiteSpace=wrap;rounded=0;" vertex="1" parent="1">
          <mxGeometry x="420" y="180" width="270" height="80" as="geometry" />
        </mxCell>
        <mxCell id="P21iSFoBiq4sMFabAfa0-28" value="" style="rounded=1;whiteSpace=wrap;html=1;" vertex="1" parent="1">
          <mxGeometry x="90" y="300" width="620" height="70" as="geometry" />
        </mxCell>
        <mxCell id="P21iSFoBiq4sMFabAfa0-29" value="Bloqueos / Dependencias" style="text;html=1;align=center;verticalAlign=middle;whiteSpace=wrap;rounded=0;fontStyle=4" vertex="1" parent="1">
          <mxGeometry x="100" y="300" width="160" height="30" as="geometry" />
        </mxCell>
        <mxCell id="P21iSFoBiq4sMFabAfa0-30" value="&lt;ul&gt;&lt;li&gt;Necesitamos ayuda del equipo de Marca&lt;/li&gt;&lt;/ul&gt;" style="text;html=1;align=left;verticalAlign=middle;whiteSpace=wrap;rounded=0;" vertex="1" parent="1">
          <mxGeometry x="100" y="330" width="340" height="30" as="geometry" />
        </mxCell>
        <mxCell id="P21iSFoBiq4sMFabAfa0-31" value="" style="endArrow=none;html=1;rounded=0;" edge="1" parent="1">
          <mxGeometry width="50" height="50" relative="1" as="geometry">
            <mxPoint y="440" as="sourcePoint" />
            <mxPoint x="830" y="440" as="targetPoint" />
          </mxGeometry>
        </mxCell>
        <mxCell id="P21iSFoBiq4sMFabAfa0-32" value="DOD y DOR" style="edgeLabel;html=1;align=center;verticalAlign=middle;resizable=0;points=[];" vertex="1" connectable="0" parent="P21iSFoBiq4sMFabAfa0-31">
          <mxGeometry x="-0.0383" y="-1" relative="1" as="geometry">
            <mxPoint as="offset" />
          </mxGeometry>
        </mxCell>
        <mxCell id="P21iSFoBiq4sMFabAfa0-33" value="" style="endArrow=none;html=1;rounded=0;" edge="1" parent="1">
          <mxGeometry width="50" height="50" relative="1" as="geometry">
            <mxPoint x="480" y="1150" as="sourcePoint" />
            <mxPoint x="478.4100000000001" y="620" as="targetPoint" />
          </mxGeometry>
        </mxCell>
        <mxCell id="P21iSFoBiq4sMFabAfa0-34" value="&lt;div&gt;&lt;font style=&quot;font-size: 15px;&quot;&gt;&lt;b&gt;DoR: &lt;/b&gt;Definition of ready o definición de listo, es un conjunto de criterios que se utilizan en Agile para evaluar si una tarea o proyecto está listo para ser trabajado. Estos criterios incluyen la claridad de las especificaciones, la disponibilidad de los recursos necesarios y la capacidad del equipo para llevar a cabo la tarea.&lt;/font&gt;&lt;/div&gt;&lt;div&gt;&lt;font style=&quot;font-size: 15px;&quot;&gt;&lt;br&gt;&lt;/font&gt;&lt;/div&gt;&lt;div&gt;&lt;font style=&quot;font-size: 15px;&quot;&gt;&lt;b&gt;DoD:&lt;/b&gt; Definition of done o definición de terminado son aquellos requisitos que un elemento del Product Backlog y la totalidad del Incremento tienen que cumplir para considerar que el trabajo de desarrollo asociado ha concluido.&lt;/font&gt;&lt;/div&gt;" style="text;html=1;align=left;verticalAlign=middle;whiteSpace=wrap;rounded=0;" vertex="1" parent="1">
          <mxGeometry x="15" y="460" width="820" height="120" as="geometry" />
        </mxCell>
        <mxCell id="P21iSFoBiq4sMFabAfa0-35" value="&lt;div&gt;&lt;div&gt;&lt;b&gt;Ejemplo Medios de Pago =&amp;gt; DOD&lt;/b&gt;&lt;/div&gt;&lt;ul&gt;&lt;li&gt;Éxito en el 100% de las pruebas unitarias&lt;/li&gt;&lt;li&gt;La historia se probó funcionalmente en el ambiente de Preproducción&lt;/li&gt;&lt;li&gt;Se han cumplido todos los Criterios de Aceptación&lt;/li&gt;&lt;li&gt;Code review de 30min o más con un par o el líder técnico (antes de desplegar en preproducción)&lt;/li&gt;&lt;li&gt;Historia de Usuario Chequeada con Diseño y aprobada por PO&lt;/li&gt;&lt;li&gt;Verificar CheckList de la Documentación Técnica del Pase&lt;/li&gt;&lt;li&gt;Código integrado y desplegado en ambiente de Preproducción&lt;/li&gt;&lt;li&gt;No hay defectos significativos o críticos&lt;/li&gt;&lt;/ul&gt;&lt;/div&gt;" style="text;html=1;align=left;verticalAlign=middle;whiteSpace=wrap;rounded=0;" vertex="1" parent="1">
          <mxGeometry x="499" y="610" width="521" height="190" as="geometry" />
        </mxCell>
        <mxCell id="P21iSFoBiq4sMFabAfa0-36" value="&lt;div&gt;&lt;span style=&quot;text-wrap-mode: nowrap;&quot;&gt;&lt;b&gt;Ejemplo Medios de Pago&amp;nbsp; =&amp;gt;&amp;nbsp; DOR&lt;/b&gt;&lt;/span&gt;&lt;/div&gt;&lt;ul&gt;&lt;li&gt;La HU tiene criterios de aceptación claros y detallados&lt;/li&gt;&lt;li&gt;El equipo ha estimado la HU y todos están de acuerdo con la estimación dada&lt;/li&gt;&lt;li&gt;Las HU´s han sido priorizadas por el P.O. y está alineada con los objetivos del sprint&lt;/li&gt;&lt;li&gt;Se han proporcionado diseños y prototipos finales&lt;/li&gt;&lt;li&gt;Se ha confirmado que la implementación es técnicamente viable dentro del sprint&lt;/li&gt;&lt;li&gt;Todo el equipo tiene un entendimiento común de la HU y su propósito&lt;/li&gt;&lt;li&gt;Todas las dependencias externas e internas han sido identificadas y resueltas&lt;/li&gt;&lt;li&gt;Todos los recursos necesarios (personal, herramientas, acceso a sistemas, etc.) están disponibles&lt;/li&gt;&lt;li&gt;No existen bloqueantes que impidan que la HU entre en el sprint&lt;br&gt;&lt;/li&gt;&lt;/ul&gt;" style="text;html=1;align=left;verticalAlign=middle;whiteSpace=wrap;rounded=0;" vertex="1" parent="1">
          <mxGeometry x="-14" y="600" width="464" height="226" as="geometry" />
        </mxCell>
        <mxCell id="P21iSFoBiq4sMFabAfa0-37" value="&lt;div&gt;&lt;div&gt;&lt;span style=&quot;text-wrap-mode: nowrap;&quot;&gt;&lt;b&gt;&lt;font style=&quot;font-size: 16px;&quot;&gt;&amp;nbsp; &amp;nbsp;&lt;u style=&quot;&quot;&gt;DOR&lt;/u&gt;&lt;/font&gt;&lt;/b&gt;&lt;/span&gt;&lt;/div&gt;&lt;ul&gt;&lt;li&gt;&lt;font style=&quot;font-size: 16px;&quot;&gt;La HU tiene criterios de aceptación claros y detallados&lt;/font&gt;&lt;/li&gt;&lt;li&gt;&lt;font style=&quot;font-size: 16px;&quot;&gt;El equipo ha estimado la HU y todos están de acuerdo con la estimación dada&lt;/font&gt;&lt;/li&gt;&lt;li&gt;&lt;font style=&quot;font-size: 16px;&quot;&gt;Las HU´s han sido priorizadas por el P.O. (Jose Vite) y está alineada con los objetivos del sprint&lt;/font&gt;&lt;/li&gt;&lt;li&gt;&lt;strike&gt;&lt;font style=&quot;font-size: 16px;&quot;&gt;Se han proporcionado diseños y prototipos finales&lt;/font&gt;&lt;/strike&gt;&lt;/li&gt;&lt;li&gt;&lt;strike&gt;&lt;font style=&quot;font-size: 16px;&quot;&gt;Se ha confirmado que la implementación es técnicamente viable dentro del sprint&lt;/font&gt;&lt;/strike&gt;&lt;/li&gt;&lt;li&gt;&lt;font style=&quot;font-size: 16px;&quot;&gt;Todo el equipo tiene un entendimiento común de la HU y su propósito&lt;/font&gt;&lt;/li&gt;&lt;li&gt;&lt;font style=&quot;font-size: 16px;&quot;&gt;Todas las dependencias externas e internas han sido identificadas y resueltas&lt;/font&gt;&lt;/li&gt;&lt;li&gt;&lt;font style=&quot;font-size: 16px;&quot;&gt;Todos los recursos necesarios (personal, herramientas, acceso a sistemas, etc.) están disponibles&lt;/font&gt;&lt;/li&gt;&lt;li&gt;&lt;font style=&quot;font-size: 16px;&quot;&gt;No existen bloqueantes que impidan que la HU entre en el sprint&lt;/font&gt;&lt;/li&gt;&lt;/ul&gt;&lt;/div&gt;" style="text;html=1;align=left;verticalAlign=middle;whiteSpace=wrap;rounded=0;" vertex="1" parent="1">
          <mxGeometry x="-51" y="890" width="510" height="380" as="geometry" />
        </mxCell>
        <mxCell id="P21iSFoBiq4sMFabAfa0-38" value="&lt;div&gt;&lt;b&gt;&amp;nbsp; &amp;nbsp; &amp;nbsp; &amp;nbsp;&lt;u&gt;DOD&lt;/u&gt;&lt;/b&gt;&lt;/div&gt;&lt;ul&gt;&lt;li&gt;&lt;strike&gt;Éxito en el 100% de las pruebas unitarias&lt;/strike&gt;&lt;/li&gt;&lt;li&gt;&lt;strike&gt;La historia se probó funcionalmente en el ambiente de Preproducción&lt;/strike&gt;&lt;/li&gt;&lt;li&gt;Se han cumplido todos los Criterios de Aceptación&lt;/li&gt;&lt;li&gt;&lt;strike&gt;Code review de 30min o más con un par o el líder técnico (antes de desplegar en preproducción)&lt;/strike&gt;&lt;/li&gt;&lt;li&gt;Completar el flujo de trabajo de Diseño y Desarrollo según corresponda.&lt;/li&gt;&lt;li&gt;&lt;strike&gt;Historia de Usuario Chequeada con Diseño y aprobada por PO&lt;/strike&gt;&lt;/li&gt;&lt;li&gt;&lt;strike&gt;Verificar CheckList de la Documentación Técnica del Pase&lt;/strike&gt;&lt;/li&gt;&lt;li&gt;&lt;font style=&quot;color: rgb(255, 0, 0);&quot;&gt;Estilos tokenizados y documentados en herramienta supernova&lt;/font&gt; &lt;font style=&quot;color: rgb(255, 0, 0);&quot;&gt;(Criterio de Aceptación)&amp;nbsp;&amp;nbsp;&lt;/font&gt;&lt;/li&gt;&lt;/ul&gt;&lt;div&gt;&lt;span style=&quot;white-space: pre;&quot;&gt;&#x9;&lt;/span&gt;&lt;span style=&quot;color: rgb(255, 0, 0); background-color: transparent;&quot;&gt;Definir estructura de Documentación&amp;nbsp; (Check Documentación de Lenny)&lt;/span&gt;&lt;br&gt;&lt;/div&gt;&lt;ul&gt;&lt;li&gt;&lt;strike&gt;No hay defectos significativos o críticos&lt;/strike&gt;&lt;/li&gt;&lt;/ul&gt;&lt;div&gt;&lt;strike&gt;&lt;br&gt;&lt;/strike&gt;&lt;/div&gt;&lt;ul&gt;&lt;li&gt;Se han cumplido todos los Criterios de Aceptación&lt;/li&gt;&lt;li&gt;Completar el flujo de trabajo de Diseño y Desarrollo según corresponda.&lt;/li&gt;&lt;li&gt;Socialización con el equipo de marca (Cuando Aplique)&amp;nbsp;&lt;/li&gt;&lt;li&gt;Liberación de componente en repositorio de artefactos&amp;nbsp; (Cuando Aplique)&lt;/li&gt;&lt;/ul&gt;" style="text;html=1;align=left;verticalAlign=middle;whiteSpace=wrap;rounded=0;fontSize=17;" vertex="1" parent="1">
          <mxGeometry x="509" y="860" width="791" height="440" as="geometry" />
        </mxCell>
        <mxCell id="P21iSFoBiq4sMFabAfa0-39" value="" style="endArrow=none;html=1;rounded=0;" edge="1" parent="1">
          <mxGeometry width="50" height="50" relative="1" as="geometry">
            <mxPoint x="-20" y="840" as="sourcePoint" />
            <mxPoint x="1001" y="840" as="targetPoint" />
          </mxGeometry>
        </mxCell>
        <mxCell id="P21iSFoBiq4sMFabAfa0-40" value="Text" style="text;html=1;align=center;verticalAlign=middle;whiteSpace=wrap;rounded=0;" vertex="1" parent="1">
          <mxGeometry x="390" y="1250" width="60" height="30" as="geometry" />
        </mxCell>
      </root>
    </mxGraphModel>
  </diagram>
  <diagram id="1xhlduNjBCRkaOStH2KE" name="DOD - DOR">
    <mxGraphModel dx="1724" dy="465" grid="1" gridSize="10" guides="1" tooltips="1" connect="1" arrows="1" fold="1" page="1" pageScale="1" pageWidth="850" pageHeight="1100" math="0" shadow="0">
      <root>
        <mxCell id="0" />
        <mxCell id="1" parent="0" />
        <mxCell id="i-LlyHVCljNSTAwNIP9c-1" value="&lt;div&gt;&lt;div&gt;&lt;span style=&quot;text-wrap-mode: nowrap;&quot;&gt;&lt;b&gt;&lt;font style=&quot;font-size: 16px;&quot;&gt;&amp;nbsp; &amp;nbsp;&lt;u style=&quot;&quot;&gt;DOR&lt;/u&gt;&lt;/font&gt;&lt;/b&gt;&lt;/span&gt;&lt;/div&gt;&lt;ul&gt;&lt;li&gt;&lt;font style=&quot;font-size: 16px;&quot;&gt;La HU tiene criterios de aceptación claros y detallados&lt;/font&gt;&lt;/li&gt;&lt;li&gt;&lt;font style=&quot;font-size: 16px;&quot;&gt;El equipo ha estimado la HU y todos están de acuerdo con la estimación dada&lt;/font&gt;&lt;/li&gt;&lt;li&gt;&lt;font style=&quot;font-size: 16px;&quot;&gt;Las HU´s han sido priorizadas por el P.O. (Jose Vite) y está alineada con los objetivos del sprint&lt;/font&gt;&lt;/li&gt;&lt;li&gt;&lt;strike&gt;&lt;font style=&quot;font-size: 16px;&quot;&gt;Se han proporcionado diseños y prototipos finales&lt;/font&gt;&lt;/strike&gt;&lt;/li&gt;&lt;li&gt;&lt;strike&gt;&lt;font style=&quot;font-size: 16px;&quot;&gt;Se ha confirmado que la implementación es técnicamente viable dentro del sprint&lt;/font&gt;&lt;/strike&gt;&lt;/li&gt;&lt;li&gt;&lt;font style=&quot;font-size: 16px;&quot;&gt;Todo el equipo tiene un entendimiento común de la HU y su propósito&lt;/font&gt;&lt;/li&gt;&lt;li&gt;&lt;font style=&quot;font-size: 16px;&quot;&gt;Todas las dependencias externas e internas han sido identificadas y resueltas&lt;/font&gt;&lt;/li&gt;&lt;li&gt;&lt;font style=&quot;font-size: 16px;&quot;&gt;Todos los recursos necesarios (personal, herramientas, acceso a sistemas, etc.) están disponibles&lt;/font&gt;&lt;/li&gt;&lt;li&gt;&lt;font style=&quot;font-size: 16px;&quot;&gt;No existen bloqueantes que impidan que la HU entre en el sprint&lt;/font&gt;&lt;/li&gt;&lt;/ul&gt;&lt;/div&gt;" style="text;html=1;align=left;verticalAlign=middle;whiteSpace=wrap;rounded=0;" vertex="1" parent="1">
          <mxGeometry x="-51" y="890" width="510" height="380" as="geometry" />
        </mxCell>
        <mxCell id="i-LlyHVCljNSTAwNIP9c-2" value="&lt;div&gt;&lt;b&gt;&amp;nbsp; &amp;nbsp; &amp;nbsp; &amp;nbsp;&lt;u&gt;DOD&lt;/u&gt;&lt;/b&gt;&lt;/div&gt;&lt;ul&gt;&lt;li&gt;&lt;strike&gt;Éxito en el 100% de las pruebas unitarias&lt;/strike&gt;&lt;/li&gt;&lt;li&gt;&lt;strike&gt;La historia se probó funcionalmente en el ambiente de Preproducción&lt;/strike&gt;&lt;/li&gt;&lt;li&gt;Se han cumplido todos los Criterios de Aceptación&lt;/li&gt;&lt;li&gt;&lt;strike&gt;Code review de 30min o más con un par o el líder técnico (antes de desplegar en preproducción)&lt;/strike&gt;&lt;/li&gt;&lt;li&gt;Completar el flujo de trabajo de Diseño y Desarrollo según corresponda.&lt;/li&gt;&lt;li&gt;&lt;strike&gt;Historia de Usuario Chequeada con Diseño y aprobada por PO&lt;/strike&gt;&lt;/li&gt;&lt;li&gt;&lt;strike&gt;Verificar CheckList de la Documentación Técnica del Pase&lt;/strike&gt;&lt;/li&gt;&lt;li&gt;&lt;font style=&quot;color: rgb(255, 0, 0);&quot;&gt;Estilos tokenizados y documentados en herramienta supernova&lt;/font&gt; &lt;font style=&quot;color: rgb(255, 0, 0);&quot;&gt;(Criterio de Aceptación)&amp;nbsp;&amp;nbsp;&lt;/font&gt;&lt;/li&gt;&lt;/ul&gt;&lt;div&gt;&lt;span style=&quot;white-space: pre;&quot;&gt;&#x9;&lt;/span&gt;&lt;span style=&quot;color: rgb(255, 0, 0); background-color: transparent;&quot;&gt;Definir estructura de Documentación&amp;nbsp; (Check Documentación de Lenny)&lt;/span&gt;&lt;br&gt;&lt;/div&gt;&lt;ul&gt;&lt;li&gt;&lt;strike&gt;No hay defectos significativos o críticos&lt;/strike&gt;&lt;/li&gt;&lt;/ul&gt;&lt;div&gt;&lt;strike&gt;&lt;br&gt;&lt;/strike&gt;&lt;/div&gt;&lt;ul&gt;&lt;li&gt;Se han cumplido todos los Criterios de Aceptación&lt;/li&gt;&lt;li&gt;Completar el flujo de trabajo de Diseño y Desarrollo según corresponda.&lt;/li&gt;&lt;li&gt;Socialización con el equipo de marca (Cuando Aplique)&amp;nbsp;&lt;/li&gt;&lt;li&gt;Liberación de componente en repositorio de artefactos&amp;nbsp; (Cuando Aplique)&lt;/li&gt;&lt;/ul&gt;" style="text;html=1;align=left;verticalAlign=middle;whiteSpace=wrap;rounded=0;fontSize=17;" vertex="1" parent="1">
          <mxGeometry x="509" y="860" width="791" height="440" as="geometry" />
        </mxCell>
      </root>
    </mxGraphModel>
  </diagram>
</mxfile>
